<?xml version="1.0" encoding="utf-8"?>
<!-- Generator: Adobe Illustrator 12.0.1, SVG Export Plug-In . SVG Version: 6.00 Build 51448)  -->
<!DOCTYPE svg PUBLIC "-//W3C//DTD SVG 1.1//EN" "http://www.w3.org/Graphics/SVG/1.1/DTD/svg11.dtd" [
	<!ENTITY ns_svg "http://www.w3.org/2000/svg">
	<!ENTITY ns_xlink "http://www.w3.org/1999/xlink">
	<!ENTITY st0 "fill:#BB0020;">
	<!ENTITY st1 "fill:#980117;">
	<!ENTITY st2 "fill:#FFFFFF;">
	<!ENTITY st3 "fill:none;">
	<!ENTITY st4 "fill:#75010E;">
	<!ENTITY st5 "fill:#DE0029;">
]>
<svg  version="1.1" id="Layer_1" xmlns="&ns_svg;" xmlns:xlink="&ns_xlink;" width="250" height="150" viewBox="0 0 250 150"
	 style="overflow:visible;enable-background:new 0 0 250 150;" xml:space="preserve">
<rect style="&st2;" width="250" height="150"/>
<g>
	<rect x="161.59" y="108.477" width="10.533" height="10.533"/>
	<rect x="228.957" y="95.869" style="&st5;" width="10.533" height="10.533"/>
	<rect x="19.13" y="61.524" style="&st4;" width="20.384" height="20.378"/>
	<rect x="49.722" y="51.513" style="&st1;" width="30.398" height="30.389"/>
	<rect x="90.327" y="36.173" style="&st0;" width="45.742" height="45.729"/>
	<rect x="146.277" y="14.05" style="&st5;" width="67.869" height="67.853"/>
	<g>
		<g>
			<path d="M22.319,95.869c-1.761,0-3.189,1.428-3.189,3.189v35.433c0,1.762,1.428,3.189,3.189,3.189h46.856
				c1.761,0,3.189-1.428,3.189-3.189v-14.173c0-1.762-1.428-3.189-3.189-3.189H45.873v6.379c0,0,15.362,0,20.114,0
				c0,2.718,0,5.076,0,7.795c-5.135,0-35.343,0-40.479,0c0-4.76,0-24.296,0-29.055c5.135,0,35.344,0,40.479,0c0,3.125,0,7.44,0,7.44
				h6.378v-10.63c0-1.762-1.428-3.189-3.189-3.189H22.319z"/>
		</g>
		<g>
			<path d="M90.436,95.869c-1.761,0-3.189,1.428-3.189,3.189v16.673c0,1.698,1.33,3.098,3.025,3.185c0,0,32.272,1.664,37.451,1.932
				c0,3.108,0,7.221,0,10.455c-4.949,0-29.148,0-34.098,0c0-3.125,0-7.441,0-7.441h-6.378v10.63c0,1.762,1.428,3.189,3.189,3.189
				h40.477c1.762,0,3.189-1.428,3.189-3.189v-16.673c0-1.697-1.33-3.098-3.025-3.185c0,0-32.272-1.664-37.451-1.931
				c0-3.109,0-7.221,0-10.455c4.949,0,29.148,0,34.098,0c0,3.125,0,7.44,0,7.44h6.379v-10.63c0-1.762-1.428-3.189-3.189-3.189
				H90.436z"/>
		</g>
		<path d="M210.908,95.869h-58.736c-1.762,0-3.189,1.428-3.189,3.189v38.622h6.379c0,0,0-30.056,0-35.433c2.444,0,12.377,0,22.99,0
			c0,11.429,0,35.433,0,35.433h6.377v-35.433c10.613,0,20.546,0,22.99,0c0,5.377,0,35.433,0,35.433h6.378V99.059
			C214.097,97.297,212.669,95.869,210.908,95.869z"/>
		<rect x="161.59" y="127.147" width="10.533" height="10.533"/>
		<rect x="190.957" y="127.147" width="10.533" height="10.533"/>
		<line style="&st3;" x1="150.732" y1="137.681" x2="182.732" y2="137.681"/>
	</g>
	<g>
		<path d="M227.804,129.79v0.938h-2.656v6.953h-1.078v-6.953h-2.656v-0.938H227.804z"/>
		<path d="M228.765,129.79h1.526l2.267,6.671l2.254-6.671h1.516v7.891h-1.016v-4.657c0-0.161,0.004-0.428,0.012-0.801
			c0.008-0.372,0.012-0.771,0.012-1.197l-2.255,6.655h-1.06l-2.271-6.655v0.241c0,0.193,0.005,0.488,0.016,0.884
			c0.011,0.396,0.016,0.687,0.016,0.873v4.657h-1.016V129.79z"/>
	</g>
</g>
</svg>
